<mxfile host="Electron" agent="Mozilla/5.0 (Windows NT 10.0; Win64; x64) AppleWebKit/537.36 (KHTML, like Gecko) draw.io/24.7.17 Chrome/128.0.6613.36 Electron/32.0.1 Safari/537.36" version="24.7.17">
  <diagram name="Page-1" id="uJWA0XU8A8i6pRbWtTfs">
    <mxGraphModel dx="977" dy="658" grid="1" gridSize="10" guides="1" tooltips="1" connect="1" arrows="1" fold="1" page="1" pageScale="1" pageWidth="850" pageHeight="1100" math="0" shadow="0">
      <root>
        <mxCell id="0" />
        <mxCell id="1" parent="0" />
        <mxCell id="qYzG8PUJJpeO185bwS53-14" value="" style="rounded=1;whiteSpace=wrap;html=1;fillColor=#dae8fc;strokeColor=#6c8ebf;" parent="1" vertex="1">
          <mxGeometry x="150" y="125" width="310" height="270" as="geometry" />
        </mxCell>
        <mxCell id="qYzG8PUJJpeO185bwS53-140" value="" style="rounded=1;whiteSpace=wrap;html=1;" parent="1" vertex="1">
          <mxGeometry x="820" y="140" width="160" height="300" as="geometry" />
        </mxCell>
        <mxCell id="qYzG8PUJJpeO185bwS53-11" value="" style="edgeStyle=orthogonalEdgeStyle;rounded=0;orthogonalLoop=1;jettySize=auto;html=1;entryX=0;entryY=0.5;entryDx=0;entryDy=0;startArrow=blockThin;startFill=1;endArrow=none;endFill=0;exitX=1;exitY=0.5;exitDx=0;exitDy=0;" parent="1" edge="1" source="qYzG8PUJJpeO185bwS53-3">
          <mxGeometry relative="1" as="geometry">
            <mxPoint x="70" y="260.0000000000001" as="sourcePoint" />
            <mxPoint x="130" y="260" as="targetPoint" />
          </mxGeometry>
        </mxCell>
        <mxCell id="qYzG8PUJJpeO185bwS53-3" value="" style="ellipse;whiteSpace=wrap;html=1;aspect=fixed;fillColor=#d5e8d4;strokeColor=#82b366;" parent="1" vertex="1">
          <mxGeometry x="40" y="240" width="40" height="40" as="geometry" />
        </mxCell>
        <mxCell id="qYzG8PUJJpeO185bwS53-12" value="" style="edgeStyle=orthogonalEdgeStyle;rounded=0;orthogonalLoop=1;jettySize=auto;html=1;entryX=0;entryY=0.5;entryDx=0;entryDy=0;startArrow=blockThin;startFill=1;endArrow=none;endFill=0;" parent="1" source="qYzG8PUJJpeO185bwS53-5" edge="1">
          <mxGeometry relative="1" as="geometry">
            <Array as="points" />
            <mxPoint x="130" y="260" as="targetPoint" />
          </mxGeometry>
        </mxCell>
        <mxCell id="qYzG8PUJJpeO185bwS53-5" value="" style="ellipse;whiteSpace=wrap;html=1;aspect=fixed;fillColor=#d5e8d4;strokeColor=#82b366;" parent="1" vertex="1">
          <mxGeometry x="40" y="320" width="40" height="40" as="geometry" />
        </mxCell>
        <mxCell id="qYzG8PUJJpeO185bwS53-10" value="" style="edgeStyle=orthogonalEdgeStyle;rounded=0;orthogonalLoop=1;jettySize=auto;html=1;entryX=0;entryY=0.5;entryDx=0;entryDy=0;startArrow=blockThin;startFill=1;endArrow=none;endFill=0;" parent="1" source="qYzG8PUJJpeO185bwS53-7" edge="1">
          <mxGeometry relative="1" as="geometry">
            <Array as="points" />
            <mxPoint x="130" y="260" as="targetPoint" />
          </mxGeometry>
        </mxCell>
        <mxCell id="qYzG8PUJJpeO185bwS53-7" value="" style="ellipse;whiteSpace=wrap;html=1;aspect=fixed;fillColor=#d5e8d4;strokeColor=#82b366;" parent="1" vertex="1">
          <mxGeometry x="40" y="160" width="40" height="40" as="geometry" />
        </mxCell>
        <mxCell id="ZrW-vdCw6YPwe6xzsk0V-27" style="edgeStyle=orthogonalEdgeStyle;rounded=0;orthogonalLoop=1;jettySize=auto;html=1;entryX=0.5;entryY=1;entryDx=0;entryDy=0;" edge="1" parent="1" source="qYzG8PUJJpeO185bwS53-87" target="qYzG8PUJJpeO185bwS53-14">
          <mxGeometry relative="1" as="geometry" />
        </mxCell>
        <mxCell id="qYzG8PUJJpeO185bwS53-87" value="&lt;b&gt;TX Transmitter ISR&lt;/b&gt;&lt;div&gt;&lt;b&gt;8KHz&lt;/b&gt;&lt;/div&gt;" style="rounded=1;whiteSpace=wrap;html=1;fillColor=#f5f5f5;fontColor=#333333;strokeColor=#666666;" parent="1" vertex="1">
          <mxGeometry x="247.5" y="430" width="115" height="80" as="geometry" />
        </mxCell>
        <mxCell id="qYzG8PUJJpeO185bwS53-113" value="&lt;b&gt;Left IR&lt;/b&gt;" style="text;strokeColor=none;align=center;fillColor=none;html=1;verticalAlign=middle;whiteSpace=wrap;rounded=0;" parent="1" vertex="1">
          <mxGeometry x="40" y="125" width="120" height="30" as="geometry" />
        </mxCell>
        <mxCell id="qYzG8PUJJpeO185bwS53-114" value="&lt;b&gt;Middle IR&lt;/b&gt;" style="text;strokeColor=none;align=center;fillColor=none;html=1;verticalAlign=middle;whiteSpace=wrap;rounded=0;" parent="1" vertex="1">
          <mxGeometry y="210" width="120" height="30" as="geometry" />
        </mxCell>
        <mxCell id="qYzG8PUJJpeO185bwS53-115" value="&lt;b&gt;Right IR&lt;/b&gt;" style="text;strokeColor=none;align=center;fillColor=none;html=1;verticalAlign=middle;whiteSpace=wrap;rounded=0;" parent="1" vertex="1">
          <mxGeometry y="290" width="120" height="30" as="geometry" />
        </mxCell>
        <mxCell id="qYzG8PUJJpeO185bwS53-128" value="" style="rhombus;whiteSpace=wrap;html=1;fillColor=#f8cecc;strokeColor=#b85450;" parent="1" vertex="1">
          <mxGeometry x="830" y="175" width="41" height="40" as="geometry" />
        </mxCell>
        <mxCell id="qYzG8PUJJpeO185bwS53-129" value="" style="rhombus;whiteSpace=wrap;html=1;fillColor=#d5e8d4;strokeColor=#82b366;" parent="1" vertex="1">
          <mxGeometry x="830" y="225" width="41" height="40" as="geometry" />
        </mxCell>
        <mxCell id="qYzG8PUJJpeO185bwS53-130" value="" style="rhombus;whiteSpace=wrap;html=1;fillColor=#fff2cc;strokeColor=#d6b656;" parent="1" vertex="1">
          <mxGeometry x="830" y="275" width="41" height="40" as="geometry" />
        </mxCell>
        <mxCell id="qYzG8PUJJpeO185bwS53-131" value="" style="rhombus;whiteSpace=wrap;html=1;fillColor=#dae8fc;strokeColor=#6c8ebf;" parent="1" vertex="1">
          <mxGeometry x="830" y="325" width="41" height="40" as="geometry" />
        </mxCell>
        <mxCell id="qYzG8PUJJpeO185bwS53-132" value="" style="rhombus;whiteSpace=wrap;html=1;fillColor=#f5f5f5;strokeColor=#666666;fontColor=#333333;" parent="1" vertex="1">
          <mxGeometry x="830" y="375" width="41" height="40" as="geometry" />
        </mxCell>
        <mxCell id="qYzG8PUJJpeO185bwS53-133" value="&lt;b&gt;Inputs&lt;/b&gt;" style="text;strokeColor=none;align=left;fillColor=none;html=1;verticalAlign=middle;whiteSpace=wrap;rounded=0;" parent="1" vertex="1">
          <mxGeometry x="890" y="180" width="60" height="30" as="geometry" />
        </mxCell>
        <mxCell id="qYzG8PUJJpeO185bwS53-135" value="&lt;b&gt;Outputs&lt;/b&gt;" style="text;strokeColor=none;align=left;fillColor=none;html=1;verticalAlign=middle;whiteSpace=wrap;rounded=0;" parent="1" vertex="1">
          <mxGeometry x="890" y="230" width="60" height="30" as="geometry" />
        </mxCell>
        <mxCell id="qYzG8PUJJpeO185bwS53-137" value="&lt;b&gt;Message Processing&lt;/b&gt;" style="text;strokeColor=none;align=left;fillColor=none;html=1;verticalAlign=middle;whiteSpace=wrap;rounded=0;" parent="1" vertex="1">
          <mxGeometry x="890" y="280" width="60" height="30" as="geometry" />
        </mxCell>
        <mxCell id="qYzG8PUJJpeO185bwS53-138" value="&lt;b&gt;Transmitter&lt;/b&gt;" style="text;strokeColor=none;align=left;fillColor=none;html=1;verticalAlign=middle;whiteSpace=wrap;rounded=0;" parent="1" vertex="1">
          <mxGeometry x="890" y="330" width="60" height="30" as="geometry" />
        </mxCell>
        <mxCell id="qYzG8PUJJpeO185bwS53-139" value="&lt;b&gt;Interrupt Service Timers&lt;/b&gt;" style="text;strokeColor=none;align=left;fillColor=none;html=1;verticalAlign=middle;whiteSpace=wrap;rounded=0;" parent="1" vertex="1">
          <mxGeometry x="890" y="380" width="80" height="30" as="geometry" />
        </mxCell>
        <mxCell id="qYzG8PUJJpeO185bwS53-141" value="&lt;b&gt;Key&lt;/b&gt;" style="text;strokeColor=none;align=center;fillColor=none;html=1;verticalAlign=middle;whiteSpace=wrap;rounded=0;" parent="1" vertex="1">
          <mxGeometry x="870" y="145" width="60" height="30" as="geometry" />
        </mxCell>
        <mxCell id="ZrW-vdCw6YPwe6xzsk0V-13" style="edgeStyle=orthogonalEdgeStyle;rounded=0;orthogonalLoop=1;jettySize=auto;html=1;entryX=0;entryY=0.5;entryDx=0;entryDy=0;" edge="1" parent="1" source="ZrW-vdCw6YPwe6xzsk0V-1" target="ZrW-vdCw6YPwe6xzsk0V-9">
          <mxGeometry relative="1" as="geometry">
            <Array as="points">
              <mxPoint x="625" y="373" />
              <mxPoint x="517" y="373" />
            </Array>
          </mxGeometry>
        </mxCell>
        <mxCell id="ZrW-vdCw6YPwe6xzsk0V-1" value="&lt;b&gt;User Input&lt;/b&gt;" style="rounded=1;whiteSpace=wrap;html=1;fillColor=#f8cecc;strokeColor=#b85450;" vertex="1" parent="1">
          <mxGeometry x="520" y="410" width="210" height="60" as="geometry" />
        </mxCell>
        <mxCell id="ZrW-vdCw6YPwe6xzsk0V-11" style="edgeStyle=orthogonalEdgeStyle;rounded=0;orthogonalLoop=1;jettySize=auto;html=1;entryX=0.75;entryY=1;entryDx=0;entryDy=0;" edge="1" parent="1" source="ZrW-vdCw6YPwe6xzsk0V-5" target="ZrW-vdCw6YPwe6xzsk0V-9">
          <mxGeometry relative="1" as="geometry" />
        </mxCell>
        <mxCell id="ZrW-vdCw6YPwe6xzsk0V-5" value="&lt;b&gt;Counter Mode&lt;/b&gt;" style="rounded=1;whiteSpace=wrap;html=1;fillColor=#fff2cc;strokeColor=#d6b656;" vertex="1" parent="1">
          <mxGeometry x="652" y="173" width="108" height="60" as="geometry" />
        </mxCell>
        <mxCell id="ZrW-vdCw6YPwe6xzsk0V-12" style="edgeStyle=orthogonalEdgeStyle;rounded=0;orthogonalLoop=1;jettySize=auto;html=1;entryX=0.25;entryY=1;entryDx=0;entryDy=0;" edge="1" parent="1" source="ZrW-vdCw6YPwe6xzsk0V-6" target="ZrW-vdCw6YPwe6xzsk0V-9">
          <mxGeometry relative="1" as="geometry" />
        </mxCell>
        <mxCell id="ZrW-vdCw6YPwe6xzsk0V-6" value="&lt;b&gt;Message Mode&lt;/b&gt;" style="rounded=1;whiteSpace=wrap;html=1;fillColor=#fff2cc;strokeColor=#d6b656;" vertex="1" parent="1">
          <mxGeometry x="652" y="280" width="108" height="60" as="geometry" />
        </mxCell>
        <mxCell id="ZrW-vdCw6YPwe6xzsk0V-26" style="edgeStyle=orthogonalEdgeStyle;rounded=0;orthogonalLoop=1;jettySize=auto;html=1;" edge="1" parent="1" source="ZrW-vdCw6YPwe6xzsk0V-9" target="ZrW-vdCw6YPwe6xzsk0V-16">
          <mxGeometry relative="1" as="geometry" />
        </mxCell>
        <mxCell id="ZrW-vdCw6YPwe6xzsk0V-9" value="" style="shape=trapezoid;perimeter=trapezoidPerimeter;whiteSpace=wrap;html=1;fixedSize=1;rotation=-90;" vertex="1" parent="1">
          <mxGeometry x="457" y="230" width="120" height="60" as="geometry" />
        </mxCell>
        <mxCell id="ZrW-vdCw6YPwe6xzsk0V-14" style="edgeStyle=orthogonalEdgeStyle;rounded=0;orthogonalLoop=1;jettySize=auto;html=1;entryX=0.538;entryY=0.983;entryDx=0;entryDy=0;entryPerimeter=0;exitX=0.5;exitY=0;exitDx=0;exitDy=0;" edge="1" parent="1" source="ZrW-vdCw6YPwe6xzsk0V-1" target="ZrW-vdCw6YPwe6xzsk0V-6">
          <mxGeometry relative="1" as="geometry">
            <Array as="points">
              <mxPoint x="625" y="373" />
              <mxPoint x="710" y="373" />
            </Array>
          </mxGeometry>
        </mxCell>
        <mxCell id="ZrW-vdCw6YPwe6xzsk0V-35" style="edgeStyle=orthogonalEdgeStyle;rounded=0;orthogonalLoop=1;jettySize=auto;html=1;strokeWidth=3;fillColor=#ffe6cc;strokeColor=#d79b00;" edge="1" parent="1" source="ZrW-vdCw6YPwe6xzsk0V-15" target="ZrW-vdCw6YPwe6xzsk0V-16">
          <mxGeometry relative="1" as="geometry" />
        </mxCell>
        <mxCell id="ZrW-vdCw6YPwe6xzsk0V-38" style="edgeStyle=orthogonalEdgeStyle;rounded=0;orthogonalLoop=1;jettySize=auto;html=1;entryX=1;entryY=0.5;entryDx=0;entryDy=0;" edge="1" parent="1" source="ZrW-vdCw6YPwe6xzsk0V-15" target="ZrW-vdCw6YPwe6xzsk0V-37">
          <mxGeometry relative="1" as="geometry">
            <Array as="points">
              <mxPoint x="220" y="170" />
              <mxPoint x="220" y="260" />
            </Array>
          </mxGeometry>
        </mxCell>
        <mxCell id="ZrW-vdCw6YPwe6xzsk0V-15" value="&lt;b&gt;Preamble&lt;/b&gt;" style="rounded=1;whiteSpace=wrap;html=1;" vertex="1" parent="1">
          <mxGeometry x="264" y="140" width="80" height="60" as="geometry" />
        </mxCell>
        <mxCell id="ZrW-vdCw6YPwe6xzsk0V-36" style="edgeStyle=orthogonalEdgeStyle;rounded=0;orthogonalLoop=1;jettySize=auto;html=1;entryX=1;entryY=0.5;entryDx=0;entryDy=0;exitX=0.5;exitY=1;exitDx=0;exitDy=0;strokeWidth=3;fillColor=#ffe6cc;strokeColor=#d79b00;" edge="1" parent="1" source="ZrW-vdCw6YPwe6xzsk0V-16" target="ZrW-vdCw6YPwe6xzsk0V-17">
          <mxGeometry relative="1" as="geometry" />
        </mxCell>
        <mxCell id="ZrW-vdCw6YPwe6xzsk0V-40" style="edgeStyle=orthogonalEdgeStyle;rounded=0;orthogonalLoop=1;jettySize=auto;html=1;entryX=1;entryY=0.5;entryDx=0;entryDy=0;" edge="1" parent="1" source="ZrW-vdCw6YPwe6xzsk0V-16" target="ZrW-vdCw6YPwe6xzsk0V-37">
          <mxGeometry relative="1" as="geometry" />
        </mxCell>
        <mxCell id="ZrW-vdCw6YPwe6xzsk0V-16" value="&lt;b&gt;Message Byte&lt;/b&gt;" style="rounded=1;whiteSpace=wrap;html=1;" vertex="1" parent="1">
          <mxGeometry x="350" y="230" width="80" height="60" as="geometry" />
        </mxCell>
        <mxCell id="ZrW-vdCw6YPwe6xzsk0V-39" style="edgeStyle=orthogonalEdgeStyle;rounded=0;orthogonalLoop=1;jettySize=auto;html=1;entryX=1;entryY=0.5;entryDx=0;entryDy=0;" edge="1" parent="1" source="ZrW-vdCw6YPwe6xzsk0V-17" target="ZrW-vdCw6YPwe6xzsk0V-37">
          <mxGeometry relative="1" as="geometry">
            <Array as="points">
              <mxPoint x="220" y="340" />
              <mxPoint x="220" y="260" />
            </Array>
          </mxGeometry>
        </mxCell>
        <mxCell id="ZrW-vdCw6YPwe6xzsk0V-47" style="edgeStyle=orthogonalEdgeStyle;rounded=0;orthogonalLoop=1;jettySize=auto;html=1;entryX=0.5;entryY=1;entryDx=0;entryDy=0;strokeWidth=3;fillColor=#ffe6cc;strokeColor=#d79b00;" edge="1" parent="1" source="ZrW-vdCw6YPwe6xzsk0V-17" target="ZrW-vdCw6YPwe6xzsk0V-15">
          <mxGeometry relative="1" as="geometry" />
        </mxCell>
        <mxCell id="ZrW-vdCw6YPwe6xzsk0V-17" value="&lt;b&gt;CRC8&lt;/b&gt;" style="rounded=1;whiteSpace=wrap;html=1;" vertex="1" parent="1">
          <mxGeometry x="265" y="310" width="80" height="60" as="geometry" />
        </mxCell>
        <mxCell id="ZrW-vdCw6YPwe6xzsk0V-33" value="&lt;b&gt;Increment Counter&lt;/b&gt;" style="edgeStyle=orthogonalEdgeStyle;rounded=0;orthogonalLoop=1;jettySize=auto;html=1;entryX=1;entryY=0.5;entryDx=0;entryDy=0;exitX=0.5;exitY=0;exitDx=0;exitDy=0;" edge="1" parent="1" source="ZrW-vdCw6YPwe6xzsk0V-5" target="ZrW-vdCw6YPwe6xzsk0V-5">
          <mxGeometry relative="1" as="geometry">
            <Array as="points">
              <mxPoint x="706" y="140" />
              <mxPoint x="780" y="140" />
              <mxPoint x="780" y="203" />
            </Array>
          </mxGeometry>
        </mxCell>
        <mxCell id="ZrW-vdCw6YPwe6xzsk0V-48" style="edgeStyle=orthogonalEdgeStyle;rounded=0;orthogonalLoop=1;jettySize=auto;html=1;" edge="1" parent="1" source="ZrW-vdCw6YPwe6xzsk0V-37">
          <mxGeometry relative="1" as="geometry">
            <mxPoint x="80" y="260" as="targetPoint" />
          </mxGeometry>
        </mxCell>
        <mxCell id="ZrW-vdCw6YPwe6xzsk0V-37" value="" style="rounded=1;whiteSpace=wrap;html=1;fillColor=#d5e8d4;strokeColor=#82b366;" vertex="1" parent="1">
          <mxGeometry x="170" y="230" width="30" height="60" as="geometry" />
        </mxCell>
        <mxCell id="ZrW-vdCw6YPwe6xzsk0V-42" value="" style="shape=flexArrow;endArrow=classic;html=1;rounded=0;fillColor=#f5f5f5;strokeColor=#666666;" edge="1" parent="1">
          <mxGeometry width="50" height="50" relative="1" as="geometry">
            <mxPoint x="150" y="105" as="sourcePoint" />
            <mxPoint x="210" y="175" as="targetPoint" />
          </mxGeometry>
        </mxCell>
        <mxCell id="ZrW-vdCw6YPwe6xzsk0V-44" value="Bit to Transmit" style="edgeLabel;html=1;align=center;verticalAlign=middle;resizable=0;points=[];fontStyle=1" vertex="1" connectable="0" parent="ZrW-vdCw6YPwe6xzsk0V-42">
          <mxGeometry x="-0.4969" y="2" relative="1" as="geometry">
            <mxPoint x="-27" y="-31" as="offset" />
          </mxGeometry>
        </mxCell>
        <mxCell id="ZrW-vdCw6YPwe6xzsk0V-45" value="" style="shape=flexArrow;endArrow=classic;html=1;rounded=0;fillColor=#ffe6cc;strokeColor=#d79b00;" edge="1" parent="1">
          <mxGeometry width="50" height="50" relative="1" as="geometry">
            <mxPoint x="440" y="80" as="sourcePoint" />
            <mxPoint x="390" y="160" as="targetPoint" />
          </mxGeometry>
        </mxCell>
        <mxCell id="ZrW-vdCw6YPwe6xzsk0V-46" value="Transition When Byte Sent" style="edgeLabel;html=1;align=center;verticalAlign=middle;resizable=0;points=[];fontStyle=1" vertex="1" connectable="0" parent="ZrW-vdCw6YPwe6xzsk0V-45">
          <mxGeometry x="-0.4969" y="2" relative="1" as="geometry">
            <mxPoint x="31" y="-41" as="offset" />
          </mxGeometry>
        </mxCell>
      </root>
    </mxGraphModel>
  </diagram>
</mxfile>
